<svg xmlns="http://www.w3.org/2000/svg" width="3440" height="1440" viewBox="0 0 3440 1440" fill="none">
  <defs>
    <linearGradient id="bg" x1="240" y1="90" x2="3020" y2="1330" gradientUnits="userSpaceOnUse">
      <stop offset="0" stop-color="#07111F"/>
      <stop offset="0.38" stop-color="#0B1D30"/>
      <stop offset="0.72" stop-color="#11314C"/>
      <stop offset="1" stop-color="#1A4E71"/>
    </linearGradient>
    <radialGradient id="glowLeft" cx="0" cy="0" r="1" gradientUnits="userSpaceOnUse" gradientTransform="translate(690 1140) rotate(-16) scale(1080 520)">
      <stop offset="0" stop-color="#5AE4FF" stop-opacity="0.34"/>
      <stop offset="0.55" stop-color="#1BC6E8" stop-opacity="0.12"/>
      <stop offset="1" stop-color="#1BC6E8" stop-opacity="0"/>
    </radialGradient>
    <radialGradient id="glowRight" cx="0" cy="0" r="1" gradientUnits="userSpaceOnUse" gradientTransform="translate(2820 980) rotate(180) scale(1220 620)">
      <stop offset="0" stop-color="#78E6FF" stop-opacity="0.22"/>
      <stop offset="0.48" stop-color="#1DB5D7" stop-opacity="0.1"/>
      <stop offset="1" stop-color="#1DB5D7" stop-opacity="0"/>
    </radialGradient>
    <linearGradient id="mesh" x1="0" y1="0" x2="3440" y2="1440" gradientUnits="userSpaceOnUse">
      <stop offset="0" stop-color="#88F5FF" stop-opacity="0.24"/>
      <stop offset="1" stop-color="#88F5FF" stop-opacity="0"/>
    </linearGradient>
    <linearGradient id="ribbonA" x1="480" y1="1180" x2="1910" y2="720" gradientUnits="userSpaceOnUse">
      <stop offset="0" stop-color="#6AF1FF" stop-opacity="0"/>
      <stop offset="0.22" stop-color="#6AF1FF" stop-opacity="0.58"/>
      <stop offset="0.6" stop-color="#1EB5D6" stop-opacity="0.36"/>
      <stop offset="1" stop-color="#0E6A92" stop-opacity="0"/>
    </linearGradient>
    <linearGradient id="ribbonB" x1="1260" y1="1320" x2="2810" y2="460" gradientUnits="userSpaceOnUse">
      <stop offset="0" stop-color="#9BF8FF" stop-opacity="0"/>
      <stop offset="0.28" stop-color="#9BF8FF" stop-opacity="0.55"/>
      <stop offset="0.62" stop-color="#1FC9E9" stop-opacity="0.28"/>
      <stop offset="1" stop-color="#1FC9E9" stop-opacity="0"/>
    </linearGradient>
    <filter id="softBlur" x="-20%" y="-20%" width="140%" height="140%">
      <feGaussianBlur stdDeviation="32"/>
    </filter>
    <pattern id="grid" width="72" height="72" patternUnits="userSpaceOnUse">
      <path d="M72 0H0V72" stroke="#D7FBFF" stroke-opacity="0.06"/>
    </pattern>
  </defs>

  <rect width="3440" height="1440" fill="url(#bg)"/>
  <rect width="3440" height="1440" fill="url(#grid)"/>
  <rect width="3440" height="1440" fill="url(#mesh)" opacity="0.35"/>

  <ellipse cx="760" cy="1160" rx="980" ry="460" fill="url(#glowLeft)"/>
  <ellipse cx="2840" cy="980" rx="1220" ry="620" fill="url(#glowRight)"/>

  <g opacity="0.9">
    <path d="M380 1240C720 1010 1030 880 1310 840C1580 801 1830 837 2100 904C2350 966 2620 1050 3060 1010" stroke="url(#ribbonA)" stroke-width="14" stroke-linecap="round"/>
    <path d="M890 1380C1230 1160 1510 970 1800 868C2080 770 2410 726 3130 560" stroke="url(#ribbonB)" stroke-width="10" stroke-linecap="round"/>
    <path d="M0 1150C350 1040 640 930 930 825C1230 716 1510 628 1790 606C2140 577 2490 638 3440 454" stroke="#B6FCFF" stroke-opacity="0.08" stroke-width="2"/>
  </g>

  <g filter="url(#softBlur)" opacity="0.8">
    <circle cx="1460" cy="300" r="100" fill="#86F5FF" fill-opacity="0.12"/>
    <circle cx="2200" cy="220" r="64" fill="#8AF6FF" fill-opacity="0.1"/>
    <circle cx="2580" cy="380" r="86" fill="#7CE9FF" fill-opacity="0.08"/>
  </g>

  <g transform="translate(1850 720)">
    <g opacity="0.2">
      <circle cx="0" cy="0" r="228" stroke="#C7FCFF" stroke-width="1.5"/>
      <circle cx="0" cy="0" r="308" stroke="#C7FCFF" stroke-width="1"/>
      <circle cx="0" cy="0" r="404" stroke="#C7FCFF" stroke-width="1"/>
    </g>

    <g opacity="0.95">
      <path d="M-70 -118C-45 -160 14 -173 56 -148L140 -101C182 -76 195 -17 170 25L83 173C58 215 -1 228 -43 203L-127 156C-169 131 -182 72 -157 30L-70 -118Z" fill="#8CF6FF" fill-opacity="0.1" stroke="#BFFFFF" stroke-opacity="0.45" stroke-width="3"/>
      <path d="M-143 73C-192 73 -223 20 -198 -23L-156 -96C-131 -139 -69 -139 -44 -96L-2 -23C23 20 -8 73 -57 73H-143Z" fill="#8FF8FF" fill-opacity="0.12" stroke="#D5FFFF" stroke-opacity="0.5" stroke-width="3"/>
      <path d="M14 95C-11 138 -73 138 -98 95L-140 22C-165 -21 -134 -74 -85 -74H1C50 -74 81 -21 56 22L14 95Z" fill="#8FF8FF" fill-opacity="0.12" stroke="#D5FFFF" stroke-opacity="0.5" stroke-width="3"/>
    </g>

    <g opacity="0.22">
      <path d="M-430 30C-280 -120 -140 -190 26 -206C132 -216 266 -197 446 -138" stroke="#BFFFFF" stroke-width="1.5"/>
      <path d="M-458 132C-302 4 -160 -72 18 -90C178 -106 328 -72 520 12" stroke="#BFFFFF" stroke-width="1"/>
    </g>
  </g>

  <rect y="1312" width="3440" height="128" fill="#03101A" fill-opacity="0.18"/>
</svg>
